<?xml version="1.0" encoding="UTF-8"?>
<svg id="Capa_1" data-name="Capa 1" xmlns="http://www.w3.org/2000/svg" viewBox="0 0 922.68 434.73">
  <defs>
    <style>
      .cls-1 {
        fill: #020202;
      }

      .cls-1, .cls-2, .cls-3, .cls-4, .cls-5 {
        stroke-width: 0px;
      }

      .cls-2 {
        fill: #e92427;
      }

      .cls-3 {
        fill: #fdfdfd;
      }

      .cls-4 {
        fill: #010101;
      }

      .cls-5 {
        fill: #57b96b;
      }
    </style>
  </defs>
  <path class="cls-3" d="M414.97,299.85c-8.63,10.12-16.61,19.48-24.59,28.85-1.12,1.31-2.53,2.46-3.34,3.94-4.59,8.46-11.78,10.67-20.84,9.46-4.1-.55-8.35.11-12.5-.16-2.98-.2-3.48.94-3.47,3.63.12,16.55-.07,33.09.15,49.64.05,3.55-1.1,4.12-4.31,4.11-38.85-.11-77.7-.13-116.55,0-3.52.01-4.63-.7-4.5-4.4.32-8.56.1-17.14.1-26.84-7.2,8.4-14.14,15.64-20.04,23.65-4.38,5.95-9.32,7.71-16.58,7.68-60-.3-120-.17-180-.17H.48c24.63-28.77,48.64-56.84,73.3-85.65h-21.54q-7.21,0-7.21-7.15c0-42.3.01-84.61,0-126.91,0-2.19.22-4.02,1.82-5.89,21.61-25.21,43.13-50.5,64.58-75.84,1.93-2.28,3.88-3.19,6.91-3.19,55.83.1,111.68,1.01,167.48-.22,45.83-1.01,91.65-.22,137.47-.77,2.1-.03,3.44-.65,4.63-2.34,4.49-6.39,10.64-10.81,17.49-14.34,4.16-2.15,7.47-5,9.77-9.27,9.49-17.6,21.51-33.33,36.61-46.46,17.16-14.92,37.12-23.01,60.08-20.88,22.31,2.07,40.61,11.27,50.2,32.98,8.23,18.63,4.33,41.31-9.14,54.47-2.33,2.27-5.06,4.13-7.68,6.24.85,1.37,2.27.61,3.39.61,27.77.05,55.54.11,83.31-.03,3.25-.02,5.22,1.03,7.21,3.48,12.76,15.74,25.67,31.36,38.53,47.02,3.77,4.59,3.72,4.56,7.69-.08,31.58-36.93,63.17-73.84,94.76-110.75,1.16-1.36,2.41-2.65,4.32-4.75v11.58c0,16.26.11,32.52-.09,48.78-.04,3.45.93,4.29,4.31,4.27,29.93-.13,59.86-.02,89.78-.13,3.2-.01,4.3.55,4.29,4.12-.14,53.09-.1,106.19-.04,159.28,0,2.3-.58,4.04-2.1,5.81-14.84,17.2-29.55,34.5-44.41,51.68-1.91,2.2-2.78,4.34-2.77,7.29.11,24.32-.02,48.63.15,72.95.02,3.48-1,4.16-4.27,4.15-38.85-.11-77.7-.1-116.55,0-3.28,0-4.37-.67-4.34-4.2.17-23.74-.03-47.48.2-71.22.05-4.72-1.04-8.35-4.95-11.13-1.12,1.19-.49,2.68-.5,4-.05,26.19-.1,52.38.04,78.56.02,3.19-.72,4.02-3.99,4.01-38.71-.13-77.41-.03-116.12-.17-3.67-.01-5.2.68-6.36,4.61-5.39,18.23-19.22,26.67-36.94,28.85-33.11,4.06-64.08-3.41-93.15-19.3-26.94-14.73-45.65-36.52-56.4-65.37-3.12-8.38-8.18-16-10.87-24.63-2.27-7.29-3.84-14.71-4.41-23.46ZM263.09,274.72c0,27.62.05,55.23-.07,82.85-.01,3.04.81,3.8,3.78,3.76,13.95-.16,27.9-.18,41.85,0,3.12.04,3.74-.89,3.72-3.83-.15-16.68,0-33.37-.14-50.05-.02-2.86.76-3.53,3.57-3.5,13.95.16,27.9-.01,41.85.14,2.87.03,4.73-.89,6.54-3.04,14.63-17.36,29.33-34.66,44.12-51.89,1.7-1.99,2.49-3.87,2.49-6.51-.08-35.67-.12-71.34.04-107.01.02-3.64-1.22-4.14-4.37-4.13-30.21.1-60.41.09-90.62.01-2.51,0-4.26.63-5.92,2.58-14.79,17.42-29.63,34.79-44.56,52.08-1.73,2.01-2.35,3.98-2.34,6.56.08,27.33.05,54.66.04,81.99ZM229.45,133.01c-1.02-.27-1.4-.46-1.79-.46-31.07-.01-62.15.01-93.22-.06-2.34,0-3.65,1.14-5,2.74-14.69,17.32-29.38,34.63-44.16,51.87-1.72,2.01-2.36,4.08-2.36,6.65.07,25.75.15,51.5-.03,77.25-.03,3.81.9,4.72,4.69,4.7,29.92-.17,59.85-.04,89.77-.17,3.02-.01,3.88.69,3.78,3.74-.24,7.18-.24,14.39,0,21.57.1,2.96-.89,3.48-3.61,3.45-13.52-.14-27.05.06-40.57-.15-3.63-.06-6.08.93-8.44,3.75-12.38,14.75-24.99,29.3-37.45,43.98-2.51,2.96-5.44,5.62-7.51,9.38,31.95,0,63.45-.03,94.96.07,2.46,0,3.6-1.36,4.89-2.87,14.5-16.92,28.95-33.87,43.54-50.71,1.92-2.22,2.82-4.34,2.81-7.29-.1-25.75-.16-51.5.03-77.25.03-3.79-.82-4.71-4.64-4.69-29.78.18-59.56.05-89.34.17-3.12.01-4.18-.57-4.04-3.93.3-6.89.31-13.82-.02-20.71-.17-3.59,1.17-4.14,4.32-4.11,13.81.15,27.62.06,41.43.09,1.88,0,3.51,0,4.96-1.73,15.48-18.32,31.06-36.57,47-55.29ZM705.14,246.79c0-19.27-.02-37.48.04-55.7,0-1.5-.83-2.37-1.63-3.34-14.58-17.77-29.19-35.53-43.76-53.31-1.07-1.31-2.2-1.93-4-1.93-29.49.06-58.99.08-88.48-.01-2.86,0-3.59.88-3.58,3.7.08,54.96.06,109.92.02,164.88,0,2.13.54,3.84,1.91,5.49,14.43,17.34,28.85,34.7,43.16,52.13,1.52,1.85,3.02,2.6,5.42,2.59,29.06-.08,58.13-.1,87.19.02,3.01.01,3.8-.72,3.77-3.76-.16-16.4-.18-32.8.02-49.2.04-3.48-.97-4.21-4.28-4.2-28.77.13-57.55.05-86.33.12-2.58,0-3.69-.3-3.68-3.38.13-35.82.12-71.65,0-107.47,0-2.93.9-3.5,3.6-3.47,13.24.13,26.47.14,39.71,0,2.85-.03,4.7.87,6.5,3.07,14.48,17.68,29.08,35.26,44.38,53.77ZM564.26,395.87c3.87-.28,7.91.14,11.88-.87,1.69-.43,3.83-.58,4.27-2.41.48-2.03-1.71-2.74-3.1-3.63-9.17-5.91-18.6-11.43-27.37-17.95-4.77-3.54-9.47-7.27-11.6-13.03-1.38-3.72-1.98-7.73-3.01-11.59-3.91-14.78-10.58-28.5-16.46-42.53-3.29-7.85-4.04-15.84-1.82-23.96,2.1-7.72,3.16-15.37,1.79-23.36-.94-5.49-1.53-11.07-1.87-16.64-.91-14.78,3.66-28.6,7.71-42.51,2.87-9.86,5.03-19.81,1.79-30.06-.67-2.12-.68-4.4.39-6.32,5.75-10.3,1.06-19.9-2.1-29.45-1.63-4.93-5.21-6.52-10.19-5.83-2.62.36-4.74-.34-6.77-1.95-6.81-5.41-14.22-7.2-22.5-3.57-2.68,1.17-5.2,1.08-7.65-.9-6.82-5.51-17.63-4.61-23.09,2.27-6.62,8.34-11.13,17.92-12.67,28.41-2.6,17.76-.38,35.53,1.26,53.26,1.03,11.14,3.09,22.25,1.9,33.48-.6,5.66-.18,11.2.8,16.71,2.28,12.87,5.32,25.63,6.33,38.67,1.03,13.3,4.22,25.74,11.58,36.98.77,1.17,1.09,2.64,1.54,4,4.6,13.61,11.75,25.68,22.68,35.07,21.84,18.76,47.67,26.94,76.28,27.71ZM786.53,133.29c-.31-.1-.61-.19-.92-.29-15.58,18.23-31.16,36.47-46.78,54.66-1.25,1.45-1.46,2.97-1.46,4.74.03,16.98.05,33.96-.02,50.94,0,2.3.62,4.04,2.15,5.82,14.92,17.31,29.72,34.73,44.66,52.02,1.75,2.02,2.34,4.01,2.33,6.58-.09,16.26.06,32.52-.13,48.78-.04,3.57.54,4.93,4.56,4.85,13.66-.3,27.34-.24,41-.05,3.22.05,3.66-1.04,3.64-3.88-.14-16.26,0-32.52-.13-48.78-.02-3.06.74-5.37,2.78-7.73,14.87-17.17,29.58-34.49,44.4-51.7,1.39-1.61,2.14-3.15,2.14-5.35-.06-36.12-.08-72.23.02-108.35,0-2.77-.64-3.59-3.52-3.56-13.81.17-27.63.24-41.44-.01-3.68-.07-4.42.92-4.41,4.45.14,35.4.05,70.79.15,106.19,0,3.06-.51,4.15-3.92,4.09-13.67-.23-27.34-.23-41.01,0-3.54.06-4.2-1.08-4.19-4.35.12-34.82.07-69.64.07-104.47v-4.59ZM522.75,126.25c.6-2.72-.45-4.31-1.56-5.77-2.24-2.97-4.4-6.07-7.02-8.69-4.33-4.33-5.75-9.43-5.21-15.32.99-10.69,5.25-20.22,10.62-29.28,5.45-9.19,13.49-15.08,23.99-17.42,9.09-2.02,14.87.69,16.4,7.79.45,2.08.59,4.04,3.41,4,2.78-.05,4.07-1.5,4.59-4.14,1.59-7.99-2.32-14.84-10.37-17.43-14.95-4.81-28.14-.76-39.73,8.89-15.38,12.81-25.98,29.35-35,46.96-1.97,3.86-4.63,6.35-8.72,8.29-5.09,2.4-9.66,5.98-14.7,8.65-1.01.54-1.66,1.53-1.51,3.03,2.24.24,4.08-1.1,6.12-1.58,5.09-1.2,10.04-2.44,14.4,2.15,1.94,2.04,4.86,1.87,7.31.75,8.06-3.69,15.09-1.59,21.65,3.54,1.64,1.29,3.59,2.59,5.47,2,4.1-1.28,6.9.48,9.85,3.59Z"/>
  <path class="cls-4" d="M263.09,274.72c0-27.33.03-54.66-.05-81.99,0-2.58.61-4.55,2.34-6.56,14.93-17.29,29.77-34.66,44.56-52.08,1.65-1.95,3.41-2.59,5.92-2.58,30.21.08,60.41.09,90.62-.01,3.15-.01,4.39.49,4.37,4.13-.16,35.67-.12,71.34-.04,107.01,0,2.63-.78,4.52-2.49,6.51-14.79,17.23-29.49,34.53-44.12,51.89-1.82,2.16-3.67,3.07-6.54,3.04-13.95-.15-27.9.02-41.85-.14-2.81-.03-3.6.64-3.57,3.5.14,16.68,0,33.37.14,50.05.03,2.94-.59,3.87-3.72,3.83-13.95-.18-27.9-.16-41.85,0-2.98.03-3.8-.72-3.78-3.76.13-27.62.07-55.23.08-82.85ZM312.3,217.71c0,8.48.08,16.96-.05,25.43-.04,2.34.47,3.18,3.02,3.15,14.37-.13,28.74-.1,43.1,0,2.3.01,3.2-.4,3.18-3-.12-17.1-.13-34.2,0-51.29.02-2.66-1.01-2.97-3.26-2.96-14.22.09-28.45.15-42.67-.04-3.1-.04-3.41,1.17-3.37,3.71.13,8.33.05,16.67.05,25Z"/>
  <path class="cls-1" d="M229.45,133.01c-15.94,18.73-31.51,36.97-47,55.29-1.45,1.72-3.08,1.73-4.96,1.73-13.81-.03-27.62.06-41.43-.09-3.15-.04-4.49.52-4.32,4.11.33,6.89.32,13.82.02,20.71-.15,3.35.92,3.94,4.04,3.93,29.78-.12,59.56,0,89.34-.17,3.81-.02,4.66.9,4.64,4.69-.19,25.75-.13,51.5-.03,77.25.01,2.95-.89,5.07-2.81,7.29-14.59,16.83-29.04,33.79-43.54,50.71-1.3,1.51-2.43,2.88-4.89,2.87-31.5-.1-63-.07-94.96-.07,2.07-3.76,5-6.42,7.51-9.38,12.46-14.68,25.07-29.24,37.45-43.98,2.36-2.82,4.81-3.81,8.44-3.75,13.52.21,27.05.01,40.57.15,2.72.03,3.71-.49,3.61-3.45-.24-7.19-.24-14.39,0-21.57.1-3.05-.76-3.75-3.78-3.74-29.92.13-59.85,0-89.77.17-3.79.02-4.72-.89-4.69-4.7.18-25.75.09-51.5.03-77.25,0-2.58.64-4.65,2.36-6.65,14.78-17.24,29.47-34.55,44.16-51.87,1.35-1.6,2.66-2.74,5-2.74,31.07.07,62.15.04,93.22.06.38,0,.76.19,1.79.46Z"/>
  <path class="cls-1" d="M705.14,246.79c-15.3-18.51-29.9-36.09-44.38-53.77-1.8-2.2-3.65-3.1-6.5-3.07-13.24.14-26.47.14-39.71,0-2.7-.03-3.61.54-3.6,3.47.11,35.82.12,71.65,0,107.47-.01,3.08,1.1,3.38,3.68,3.38,28.78-.08,57.55,0,86.33-.12,3.31-.01,4.32.72,4.28,4.2-.21,16.4-.18,32.8-.02,49.2.03,3.04-.77,3.78-3.77,3.76-29.06-.12-58.13-.1-87.19-.02-2.4,0-3.9-.74-5.42-2.59-14.32-17.43-28.73-34.79-43.16-52.13-1.37-1.65-1.92-3.36-1.91-5.49.04-54.96.06-109.92-.02-164.88,0-2.82.72-3.71,3.58-3.7,29.49.09,58.99.08,88.48.01,1.8,0,2.92.62,4,1.93,14.57,17.78,29.17,35.54,43.76,53.31.8.97,1.63,1.84,1.63,3.34-.06,18.22-.04,36.43-.04,55.7Z"/>
  <path class="cls-2" d="M564.26,395.87c-28.61-.76-54.44-8.95-76.28-27.71-10.93-9.39-18.09-21.46-22.68-35.07-.46-1.36-.78-2.83-1.54-4-7.36-11.25-10.55-23.68-11.58-36.98-1.01-13.04-4.05-25.8-6.33-38.67-.98-5.5-1.39-11.04-.8-16.71,1.19-11.23-.88-22.34-1.9-33.48-1.64-17.73-3.86-35.5-1.26-53.26,1.54-10.5,6.05-20.08,12.67-28.41,5.46-6.88,16.27-7.78,23.09-2.27,2.45,1.98,4.97,2.07,7.65.9,8.28-3.62,15.69-1.83,22.5,3.57,2.03,1.61,4.15,2.31,6.77,1.95,4.98-.68,8.56.9,10.19,5.83,3.16,9.55,7.85,19.15,2.1,29.45-1.07,1.92-1.06,4.2-.39,6.32,3.25,10.26,1.09,20.2-1.79,30.06-4.05,13.91-8.62,27.73-7.71,42.51.34,5.57.93,11.15,1.87,16.64,1.37,7.99.32,15.64-1.79,23.36-2.21,8.12-1.46,16.11,1.82,23.96,5.87,14.02,12.54,27.75,16.46,42.53,1.02,3.86,1.63,7.86,3.01,11.59,2.13,5.76,6.83,9.49,11.6,13.03,8.78,6.51,18.2,12.03,27.37,17.95,1.39.89,3.58,1.6,3.1,3.63-.44,1.83-2.57,1.98-4.27,2.41-3.97,1-8.01.59-11.88.87ZM560.99,384c-4.96-2.81-9.95-5.55-14.86-8.43-10.2-5.99-16.07-14.56-16.47-26.73-.22-6.93-1.98-13.64-5.06-19.92-2.53-5.15-5.05-10.32-7.82-15.34-6.32-11.45-8.42-23.32-4.69-36.1,3.25-11.13,2.81-22.5.87-33.76-2.73-15.8-2.41-31.08,4.9-45.83,3.68-7.42,5.71-15.56,3.95-23.81-1.77-8.26-1.49-16.17.78-24.22.9-3.19,1.55-6.62-.24-9.89.54,4.69-.55,9.17-2.14,13.44-2.03,5.44-2.35,11.11-1.33,16.5,1.83,9.68.28,18.7-4.09,27.13-7.03,13.58-8.9,27.73-6.47,42.66,2.29,14.05,2.43,27.98-1.43,41.89-1.29,4.65-1.45,9.6-.67,14.54,1.31,8.28,4.84,15.63,9.03,22.68,6.4,10.76,10.99,22.02,12.21,34.63.62,6.4,3.28,12.09,8.19,16.62,7.31,6.74,16.24,10.47,25.35,13.94Z"/>
  <path class="cls-1" d="M786.53,133.29v4.59c0,34.82.04,69.64-.07,104.47-.01,3.28.65,4.41,4.19,4.35,13.67-.22,27.34-.23,41.01,0,3.41.06,3.92-1.03,3.92-4.09-.11-35.4-.01-70.79-.15-106.19-.01-3.53.73-4.52,4.41-4.45,13.81.26,27.63.18,41.44.01,2.87-.04,3.52.79,3.52,3.56-.09,36.12-.08,72.23-.02,108.35,0,2.2-.75,3.74-2.14,5.35-14.82,17.22-29.53,34.53-44.4,51.7-2.04,2.36-2.81,4.67-2.78,7.73.13,16.26,0,32.52.13,48.78.02,2.85-.42,3.93-3.64,3.88-13.67-.2-27.34-.25-41,.05-4.03.09-4.61-1.28-4.56-4.85.19-16.26.05-32.52.13-48.78.01-2.57-.58-4.56-2.33-6.58-14.95-17.29-29.74-34.71-44.66-52.02-1.53-1.77-2.16-3.52-2.15-5.82.07-16.98.05-33.96.02-50.94,0-1.77.21-3.29,1.46-4.74,15.63-18.19,31.2-36.43,46.78-54.66.31.1.61.19.92.29Z"/>
  <path class="cls-5" d="M522.75,126.25c-2.95-3.11-5.75-4.87-9.85-3.59-1.88.59-3.83-.71-5.47-2-6.55-5.13-13.58-7.23-21.65-3.54-2.45,1.12-5.38,1.29-7.31-.75-4.36-4.6-9.31-3.35-14.4-2.15-2.03.48-3.87,1.82-6.12,1.58-.15-1.5.5-2.49,1.51-3.03,5.04-2.67,9.62-6.25,14.7-8.65,4.1-1.93,6.75-4.43,8.72-8.29,9.02-17.62,19.62-34.15,35-46.96,11.59-9.66,24.78-13.71,39.73-8.89,8.05,2.59,11.95,9.44,10.37,17.43-.53,2.64-1.81,4.1-4.59,4.14-2.83.05-2.96-1.92-3.41-4-1.53-7.1-7.31-9.81-16.4-7.79-10.5,2.34-18.54,8.22-23.99,17.42-5.37,9.06-9.63,18.59-10.62,29.28-.55,5.9.88,10.99,5.21,15.32,2.62,2.62,4.78,5.71,7.02,8.69,1.1,1.46,2.16,3.05,1.56,5.77Z"/>
  <path class="cls-3" d="M312.3,217.71c0-8.33.08-16.67-.05-25-.04-2.55.27-3.75,3.37-3.71,14.22.19,28.45.12,42.67.04,2.25-.01,3.28.3,3.26,2.96-.12,17.1-.12,34.2,0,51.29.02,2.6-.89,3.01-3.18,3-14.37-.09-28.74-.12-43.1,0-2.55.02-3.05-.81-3.02-3.15.13-8.48.05-16.95.05-25.43Z"/>
  <path class="cls-3" d="M560.99,384c-9.11-3.47-18.05-7.2-25.35-13.94-4.91-4.53-7.57-10.22-8.19-16.62-1.22-12.61-5.8-23.88-12.21-34.63-4.19-7.04-7.72-14.4-9.03-22.68-.78-4.95-.62-9.9.67-14.54,3.86-13.9,3.72-27.84,1.43-41.89-2.43-14.92-.55-29.08,6.47-42.66,4.36-8.43,5.91-17.45,4.09-27.13-1.02-5.39-.7-11.06,1.33-16.5,1.6-4.26,2.68-8.74,2.14-13.44,1.79,3.27,1.14,6.69.24,9.89-2.27,8.05-2.54,15.96-.78,24.22,1.76,8.25-.27,16.39-3.95,23.81-7.32,14.75-7.63,30.03-4.9,45.83,1.94,11.26,2.38,22.63-.87,33.76-3.73,12.79-1.64,24.66,4.69,36.1,2.77,5.02,5.29,10.19,7.82,15.34,3.09,6.27,4.84,12.99,5.06,19.92.39,12.17,6.27,20.75,16.47,26.73,4.91,2.88,9.9,5.63,14.86,8.43Z"/>
</svg>