<svg width="48" height="48" viewBox="0 0 48 48" fill="none" xmlns="http://www.w3.org/2000/svg">
<path d="M33 42H15C10.0374 42 6 37.9626 6 33V15C6 10.0374 10.0374 6 15 6H33C37.9626 6 42 10.0374 42 15V33C42 37.9626 37.9626 42 33 42ZM15 9C11.6916 9 9 11.6916 9 15V33C9 36.3084 11.6916 39 15 39H33C36.3084 39 39 36.3084 39 33V15C39 11.6916 36.3084 9 33 9H15Z" fill="#1B1D1C"/>
<path d="M33 42H15C10.0374 42 6 37.9626 6 33V15C6 10.0374 10.0374 6 15 6H33C37.9626 6 42 10.0374 42 15V33C42 37.9626 37.9626 42 33 42ZM15 9C11.6916 9 9 11.6916 9 15V33C9 36.3084 11.6916 39 15 39H33C36.3084 39 39 36.3084 39 33V15C39 11.6916 36.3084 9 33 9H15Z" stroke="#F11B1B"/>
<path d="M24 32.7001C19.2028 32.7001 15.3 28.7972 15.3 24C15.3 19.2028 19.2028 15.3 24 15.3C28.7972 15.3 32.7001 19.2028 32.7001 24C32.7001 28.7972 28.7972 32.7001 24 32.7001ZM24 18.1632C20.7816 18.1632 18.1632 20.7816 18.1632 24C18.1632 27.2184 20.7816 29.8368 24 29.8368C27.2184 29.8368 29.8368 27.2184 29.8368 24C29.8368 20.7816 27.2184 18.1632 24 18.1632Z" fill="#1B1D1C"/>
<path d="M24 32.7001C19.2028 32.7001 15.3 28.7972 15.3 24C15.3 19.2028 19.2028 15.3 24 15.3C28.7972 15.3 32.7001 19.2028 32.7001 24C32.7001 28.7972 28.7972 32.7001 24 32.7001ZM24 18.1632C20.7816 18.1632 18.1632 20.7816 18.1632 24C18.1632 27.2184 20.7816 29.8368 24 29.8368C27.2184 29.8368 29.8368 27.2184 29.8368 24C29.8368 20.7816 27.2184 18.1632 24 18.1632Z" stroke="#F11B1B"/>
<path d="M33.9001 16.2C35.0598 16.2 36 15.2598 36 14.1C36 12.9402 35.0598 12 33.9001 12C32.7403 12 31.8 12.9402 31.8 14.1C31.8 15.2598 32.7403 16.2 33.9001 16.2Z" fill="#1B1D1C"/>
<path d="M33.9001 16.2C35.0598 16.2 36 15.2598 36 14.1C36 12.9402 35.0598 12 33.9001 12C32.7403 12 31.8 12.9402 31.8 14.1C31.8 15.2598 32.7403 16.2 33.9001 16.2Z" stroke="#F11B1B"/>
</svg>
