<svg width="24" height="24" viewBox="0 0 24 24" fill="none" xmlns="http://www.w3.org/2000/svg">
<path d="M16.5 21H7.5C5.0187 21 3 18.9813 3 16.5V7.5C3 5.0187 5.0187 3 7.5 3H16.5C18.9813 3 21 5.0187 21 7.5V16.5C21 18.9813 18.9813 21 16.5 21ZM7.5 4.5C5.8458 4.5 4.5 5.8458 4.5 7.5V16.5C4.5 18.1542 5.8458 19.5 7.5 19.5H16.5C18.1542 19.5 19.5 18.1542 19.5 16.5V7.5C19.5 5.8458 18.1542 4.5 16.5 4.5H7.5Z" fill="#1B1D1C"/>
<path d="M11.9999 16.3499C9.6013 16.3499 7.6499 14.3985 7.6499 11.9999C7.6499 9.6013 9.6013 7.6499 11.9999 7.6499C14.3985 7.6499 16.3499 9.6013 16.3499 11.9999C16.3499 14.3985 14.3985 16.3499 11.9999 16.3499ZM11.9999 9.0815C10.3907 9.0815 9.0815 10.3907 9.0815 11.9999C9.0815 13.6091 10.3907 14.9183 11.9999 14.9183C13.6091 14.9183 14.9183 13.6091 14.9183 11.9999C14.9183 10.3907 13.6091 9.0815 11.9999 9.0815Z" fill="#1B1D1C"/>
<path d="M16.9499 8.1C17.5298 8.1 17.9999 7.6299 17.9999 7.05C17.9999 6.4701 17.5298 6 16.9499 6C16.37 6 15.8999 6.4701 15.8999 7.05C15.8999 7.6299 16.37 8.1 16.9499 8.1Z" fill="#1B1D1C"/>
</svg>
