<svg width="24" height="24" viewBox="0 0 24 24" fill="none" xmlns="http://www.w3.org/2000/svg">
<path d="M5.61004 10.5299C5.58004 10.3799 5.56004 10.2199 5.52004 10.0699C5.36004 9.31992 5.46004 8.57992 5.71004 7.86992C5.86004 7.43992 6.21004 7.17992 6.67004 7.11992C6.80004 7.09992 6.95004 7.14992 7.07004 7.19992C7.28004 7.28992 7.46004 7.26992 7.64004 7.11992C8.04004 6.77992 8.51004 6.73992 8.99004 6.90992C9.20004 6.98992 9.40004 6.97992 9.61004 6.91992C9.96004 6.81992 10.13 6.86992 10.32 7.16992C10.53 7.48992 10.72 7.82992 10.9 8.16992C10.95 8.25992 10.96 8.37992 10.97 8.48992C10.98 8.58992 10.97 8.69992 10.97 8.80992C10.97 9.06992 11.04 9.29992 11.17 9.52992C11.4 9.93992 11.46 10.4099 11.48 10.8799C11.51 11.4999 11.54 12.1199 11.56 12.7399C11.58 13.4199 11.78 14.0499 12.07 14.6599C12.36 15.2799 12.54 15.9299 12.54 16.6299C12.54 17.1299 12.76 17.5399 13.06 17.9199C13.64 18.6499 14.21 19.3899 14.78 20.1299C14.9 20.2899 15 20.4699 15.09 20.6499C15.27 21.0199 15.55 21.2899 15.94 21.4299C16.67 21.6699 17.41 21.8999 18.14 22.1299C18.28 22.1799 18.41 22.2499 18.55 22.3099C18.43 22.5699 18.21 22.6199 18 22.6999C16.74 23.1699 15.44 23.2599 14.12 23.0499C13.38 22.9299 12.66 22.7199 12 22.3399C11.33 21.9499 10.79 21.4299 10.33 20.8099C10.16 20.5799 9.94004 20.3799 9.75004 20.1599C9.33004 19.6999 9.05004 19.1699 8.79004 18.6099C8.50004 17.9699 8.19004 17.3399 7.90004 16.6999C7.72004 16.3099 7.53004 15.9299 7.37004 15.5299C7.29004 15.3399 7.29004 15.1099 7.22004 14.9199C7.03004 14.3799 6.83004 13.8399 6.63004 13.2999C6.36004 12.5599 6.08004 11.8299 5.80004 11.0899C5.79004 11.0599 5.77004 11.0299 5.75004 10.9899C5.70004 10.8299 5.65004 10.6699 5.61004 10.4999V10.5299ZM16.92 22.1199C16.92 22.1199 16.84 22.0999 16.79 22.0899C16.47 22.0099 16.14 21.9399 15.82 21.8399C15.27 21.6699 14.87 21.3199 14.67 20.7599C14.47 20.1999 14.16 19.6999 13.76 19.2599C13.5 18.9799 13.23 18.7099 12.97 18.4399C12.52 17.9599 12.21 17.4099 12.2 16.7299C12.19 15.7799 11.91 14.9099 11.49 14.0699C11.2 13.4699 11 12.8499 11.01 12.1799C11.01 11.7999 11.07 11.4199 11.1 11.0399C11.13 10.6699 11.12 10.2899 10.93 9.94992C10.61 9.38992 10.5 8.76992 10.46 8.13992C10.46 7.99992 10.4 7.86992 10.37 7.72992C10.36 7.72992 10.35 7.72992 10.33 7.72992C10.33 7.75992 10.33 7.79992 10.33 7.82992C10.35 8.13992 10.38 8.44992 10.4 8.74992C10.42 9.01992 10.47 9.27992 10.59 9.52992C10.88 10.0999 10.98 10.6999 10.88 11.3299C10.85 11.5199 10.81 11.7099 10.79 11.9099C10.72 12.7499 10.94 13.5399 11.3 14.2899C11.65 15.0399 11.89 15.8099 11.91 16.6399C11.92 17.2899 12.14 17.8699 12.6 18.3499C12.88 18.6499 13.16 18.9499 13.44 19.2499C13.85 19.6699 14.2 20.1299 14.43 20.6799C14.54 20.9299 14.68 21.1899 14.86 21.3899C15.41 21.9899 16.16 22.0699 16.91 22.1099L16.92 22.1199Z" fill="#EA1821"/>
<path d="M10.09 6.82012C9.84004 6.67012 9.61004 6.68012 9.38004 6.78012C9.26004 6.83012 9.13004 6.81012 9.01004 6.76012C8.69004 6.64012 8.36004 6.58012 8.03004 6.70012C7.87004 6.76012 7.73004 6.85012 7.59004 6.94012C7.43004 7.05012 7.26004 7.09012 7.08004 7.00012C6.84004 6.88012 6.61004 6.93012 6.39004 7.06012C6.24004 7.15012 6.09004 7.25012 5.94004 7.34012C5.88004 7.38012 5.84004 7.39012 5.79004 7.29012C6.01004 7.05012 6.23004 6.78012 6.48004 6.55012C6.81004 6.24012 7.01004 5.89012 7.09004 5.43012C7.25004 4.52012 7.53004 3.65012 7.94004 2.82012C8.19004 2.32012 8.47004 1.85012 8.90004 1.47012C9.44004 0.990118 10.08 0.770118 10.8 0.840118C11.27 0.890118 11.57 1.19012 11.62 1.66012C11.64 1.83012 11.56 1.94012 11.44 2.02012C11.34 2.09012 11.26 2.02012 11.19 1.96012C11.16 1.93012 11.14 1.88012 11.11 1.85012C10.84 1.48012 10.53 1.40012 10.12 1.60012C9.44004 1.93012 8.98004 2.45012 8.80004 3.19012C8.65004 3.79012 8.56004 4.40012 8.63004 5.02012C8.69004 5.53012 8.91004 5.91012 9.38004 6.15012C9.76004 6.34012 9.94004 6.53012 10.09 6.81012V6.82012Z" fill="#EA1821"/>
</svg>
