<svg width="48" height="48" viewBox="0 0 48 48" fill="none" xmlns="http://www.w3.org/2000/svg">
<path d="M16.5005 37.9422C15.6721 37.9422 15.0005 37.2706 15.0005 36.4422V11.2422C15.0005 10.4138 15.6721 9.74219 16.5005 9.74219C17.3289 9.74219 18.0005 10.4138 18.0005 11.2422V36.4422C18.0005 37.2706 17.3289 37.9422 16.5005 37.9422ZM10.5005 37.9422C9.67209 37.9422 9.00049 37.2706 9.00049 36.4422V16.0422C9.00049 15.2138 9.67209 14.5422 10.5005 14.5422C11.3289 14.5422 12.0005 15.2138 12.0005 16.0422V36.4422C12.0005 37.2706 11.3289 37.9422 10.5005 37.9422ZM4.50049 37.9422C3.67209 37.9422 3.00049 37.2706 3.00049 36.4422V19.9422C3.00049 19.1138 3.67209 18.4422 4.50049 18.4422C5.32889 18.4422 6.00049 19.1138 6.00049 19.9422V36.4422C6.00049 37.2706 5.32889 37.9422 4.50049 37.9422Z" fill="#1B1D1C"/>
<path d="M37.9881 37.9423H22.5005C21.6721 37.9423 21.0005 37.2707 21.0005 36.4423V10.9891C21.0005 10.5711 21.1749 10.1721 21.4817 9.88808C21.7885 9.60428 22.2001 9.46168 22.6167 9.49368C23.1661 9.53628 23.6637 9.60308 24.0955 9.69188C29.5659 10.8421 33.6137 14.9075 34.9145 20.4429C35.4197 20.3425 35.8651 20.3221 36.6493 20.3589L36.6983 20.3613C38.1469 20.4333 38.3727 20.4581 39.4379 20.8617C39.4403 20.8627 39.4429 20.8637 39.4453 20.8647C41.7181 21.7397 43.5277 23.5463 44.4099 25.8211C45.2949 28.1027 45.1739 30.6691 44.0783 32.8617C42.8847 35.2743 41.2507 36.8801 39.2241 37.6291C39.1981 37.6387 39.1719 37.6475 39.1451 37.6557L38.4291 37.8761C38.2863 37.9199 38.1377 37.9423 37.9881 37.9423ZM24.0005 34.9423H37.7625L38.2203 34.8015C39.5053 34.3139 40.5431 33.2419 41.3921 31.5259C42.1237 30.0615 42.2013 28.4225 41.6129 26.9057C41.0277 25.3967 39.8763 24.2461 38.3707 23.6655C37.7107 23.4155 37.7081 23.4155 36.5491 23.3575L36.5047 23.3553C35.6969 23.3175 35.5917 23.3467 35.0105 23.5073L34.1523 23.7529C33.7419 23.8703 33.3003 23.8071 32.9393 23.5793C32.5781 23.3513 32.3313 22.9801 32.2605 22.5591L32.1997 22.1969C31.4623 17.3705 28.4151 13.8827 24.0007 12.7499L24.0005 34.9423Z" fill="#1B1D1C"/>
</svg>
