<svg width="24" height="24" viewBox="0 0 24 24" fill="none" xmlns="http://www.w3.org/2000/svg">
<path d="M8.25024 18.9711C7.83604 18.9711 7.50024 18.6353 7.50024 18.2211V5.62109C7.50024 5.20689 7.83604 4.87109 8.25024 4.87109C8.66444 4.87109 9.00024 5.20689 9.00024 5.62109V18.2211C9.00024 18.6353 8.66444 18.9711 8.25024 18.9711ZM5.25024 18.9711C4.83604 18.9711 4.50024 18.6353 4.50024 18.2211V8.02109C4.50024 7.60689 4.83604 7.27109 5.25024 7.27109C5.66444 7.27109 6.00024 7.60689 6.00024 8.02109V18.2211C6.00024 18.6353 5.66444 18.9711 5.25024 18.9711ZM2.25024 18.9711C1.83604 18.9711 1.50024 18.6353 1.50024 18.2211V9.97109C1.50024 9.55689 1.83604 9.22109 2.25024 9.22109C2.66444 9.22109 3.00024 9.55689 3.00024 9.97109V18.2211C3.00024 18.6353 2.66444 18.9711 2.25024 18.9711Z" fill="#1B1D1C"/>
<path d="M18.994 18.9711H11.2502C10.836 18.9711 10.5002 18.6353 10.5002 18.2211V5.49454C10.5002 5.28554 10.5874 5.08604 10.7408 4.94404C10.8942 4.80214 11.1 4.73084 11.3083 4.74684C11.583 4.76814 11.8318 4.80154 12.0477 4.84594C14.7829 5.42104 16.8068 7.45374 17.4572 10.2214C17.7098 10.1712 17.9325 10.161 18.3246 10.1794L18.3491 10.1806C19.0734 10.2166 19.1863 10.229 19.7189 10.4308C19.7201 10.4313 19.7214 10.4318 19.7226 10.4323C20.859 10.8698 21.7638 11.7731 22.2049 12.9105C22.6474 14.0513 22.5869 15.3345 22.0391 16.4308C21.4423 17.6371 20.6253 18.44 19.612 18.8145C19.599 18.8193 19.5859 18.8237 19.5725 18.8278L19.2145 18.938C19.1431 18.9599 19.0688 18.9711 18.994 18.9711ZM12.0002 17.4711H18.8812L19.1101 17.4007C19.7526 17.1569 20.2715 16.6209 20.696 15.7629C21.0618 15.0307 21.1006 14.2112 20.8064 13.4528C20.5138 12.6983 19.9381 12.123 19.1853 11.8327C18.8553 11.7077 18.854 11.7077 18.2745 11.6787L18.2523 11.6776C17.8484 11.6587 17.7958 11.6733 17.5052 11.7536L17.0761 11.8764C16.8709 11.9351 16.6501 11.9035 16.4696 11.7896C16.289 11.6756 16.1656 11.49 16.1302 11.2795L16.0998 11.0984C15.7311 8.68524 14.2075 6.94134 12.0003 6.37494L12.0002 17.4711Z" fill="#1B1D1C"/>
</svg>
